<svg width="40" height="40" viewBox="0 0 40 40" fill="none" xmlns="http://www.w3.org/2000/svg">
<path d="M30 13.3335H10V16.6669H30V13.3335Z" fill="#BBBABA"/>
<path d="M30 20H10V23.3334H30V20Z" fill="#BBBABA"/>
<path d="M15 39.9999H10V26.6665H29.9999V39.9999H24.9999V31.6665L25 29.9998L23.3333 29.9999H16.6666H15V31.6665V39.9999Z" fill="#BBBABA"/>
<path d="M1.66664 0H38.3334H39.9999V1.66664V38.3334V40H38.3333H33.3333V11.6666C33.3333 10.7466 32.5883 10 31.6666 10H8.33328C7.41166 10 6.66667 10.7466 6.66664 11.6666C6.66664 11.6666 6.66664 11.6666 6.66664 11.6666V40H1.66664H0V38.3333V1.66664V0H1.66664Z" fill="#BBBABA"/>
</svg>
