<?xml version="1.0" standalone="no"?>
<!DOCTYPE svg PUBLIC "-//W3C//DTD SVG 20010904//EN"
 "http://www.w3.org/TR/2001/REC-SVG-20010904/DTD/svg10.dtd">
<svg version="1.0" xmlns="http://www.w3.org/2000/svg"
 width="827.000000pt" height="827.000000pt" viewBox="0 0 827.000000 827.000000"
 preserveAspectRatio="xMidYMid meet">
<metadata>
Created by potrace 1.14, written by Peter Selinger 2001-2017
</metadata>
<g transform="translate(0.000000,827.000000) scale(0.100000,-0.100000)"
fill="#000000" stroke="none">
<path d="M3587 7144 c-1 -1 -42 -5 -92 -8 -106 -7 -186 -17 -270 -32 -16 -3
-37 -6 -45 -8 -8 -1 -42 -8 -75 -15 -33 -8 -67 -15 -75 -16 -8 -2 -15 -4 -15
-5 0 -1 -7 -3 -15 -5 -49 -11 -137 -37 -215 -65 -49 -17 -105 -37 -122 -43
-18 -5 -33 -14 -33 -19 0 -4 -7 -8 -16 -8 -20 0 -200 -89 -304 -150 -41 -25
-78 -43 -82 -42 -5 1 -8 -2 -8 -7 0 -12 -102 -76 -115 -72 -5 1 -7 -1 -3 -5 4
-4 -18 -25 -50 -47 -31 -23 -62 -46 -68 -52 -6 -5 -35 -30 -65 -55 -29 -25
-85 -76 -123 -115 -39 -38 -75 -68 -81 -66 -5 1 -7 0 -3 -4 4 -4 -10 -25 -30
-47 -20 -23 -42 -46 -47 -52 -6 -6 -30 -36 -55 -66 -25 -30 -47 -57 -50 -60
-3 -3 -30 -41 -60 -85 -29 -44 -59 -83 -64 -87 -6 -4 -7 -8 -2 -8 5 0 2 -8 -6
-17 -23 -26 -129 -217 -165 -298 -66 -147 -73 -164 -73 -173 0 -5 -8 -27 -17
-48 -9 -22 -17 -41 -18 -44 -1 -3 -12 -39 -25 -80 -13 -41 -24 -77 -25 -80 -1
-3 -5 -21 -9 -40 -5 -19 -11 -39 -14 -45 -4 -5 -7 -14 -7 -20 -2 -37 -18 -95
-26 -95 -6 0 -8 -3 -5 -8 2 -4 -2 -32 -10 -62 -9 -30 -17 -62 -19 -70 -2 -8
-11 -42 -20 -75 -9 -33 -25 -92 -35 -132 -10 -40 -23 -81 -29 -91 -6 -11 -8
-21 -6 -24 3 -3 -2 -29 -11 -58 -9 -30 -17 -61 -19 -69 -2 -9 -17 -64 -33
-123 l-30 -108 32 0 c272 -2 3290 1 3293 3 1 2 -218 224 -487 493 -269 269
-490 492 -490 496 0 4 1025 7 2278 7 1252 0 2284 0 2292 1 11 0 21 24 35 81
10 44 22 82 27 85 5 3 6 9 3 14 -3 5 -1 20 5 34 5 15 12 37 14 49 4 18 18 73
41 157 2 8 4 15 5 15 1 0 4 13 6 28 3 15 10 40 16 55 6 15 11 30 10 33 -1 4 3
22 9 40 6 19 12 43 15 54 3 11 6 25 8 30 2 6 6 24 11 40 4 17 25 93 46 170 21
77 41 156 44 175 3 19 9 37 13 40 8 5 12 21 17 60 2 14 20 84 40 155 20 72 38
141 41 155 2 14 8 34 13 45 5 11 17 54 26 95 10 41 38 145 61 230 23 85 40
157 38 159 -4 4 -4673 8 -4677 5z"/>
<path d="M4140 4137 c0 -4 24 -31 53 -60 28 -28 51 -55 50 -59 -2 -5 3 -7 10
-5 6 1 11 -4 10 -10 -2 -7 1 -12 5 -10 10 3 298 -285 294 -295 -1 -4 4 -7 10
-6 7 2 12 -3 10 -10 -1 -8 1 -11 6 -8 11 7 42 -30 34 -40 -4 -4 -2 -4 4 -1 12
7 46 -28 36 -38 -4 -4 -2 -5 3 -3 9 3 455 -435 455 -447 0 -2 -1009 -4 -2242
-4 -1234 0 -2266 0 -2295 -1 -50 0 -52 -1 -58 -32 -4 -18 -16 -64 -27 -102
-11 -38 -21 -76 -23 -85 -3 -16 -18 -71 -96 -361 -22 -80 -42 -156 -45 -170
-2 -14 -11 -45 -18 -70 -12 -39 -23 -80 -31 -115 -2 -5 -8 -30 -16 -55 -7 -25
-13 -49 -15 -55 -17 -76 -48 -182 -55 -191 -5 -6 -7 -13 -4 -16 3 -2 0 -20 -6
-39 -5 -19 -12 -42 -14 -52 -2 -10 -7 -27 -10 -37 -3 -10 -8 -27 -10 -37 -2
-10 -9 -34 -14 -53 -5 -19 -19 -71 -30 -115 -12 -44 -24 -87 -28 -95 -3 -8 -7
-25 -8 -36 -2 -12 -13 -54 -25 -95 -12 -40 -24 -83 -26 -96 -2 -12 -8 -33 -12
-45 -5 -13 -8 -29 -8 -37 1 -12 329 -14 2346 -14 2130 0 2437 3 2550 19 19 2
51 7 70 9 68 9 96 14 170 30 41 9 82 18 90 20 155 33 482 156 603 227 26 15
47 24 47 20 0 -4 4 -2 8 4 8 12 68 45 78 43 4 0 10 3 13 8 3 5 40 31 81 57
153 99 272 196 433 352 48 47 87 87 87 89 0 2 22 26 49 54 27 28 47 51 45 51
-4 0 31 46 101 132 8 9 21 31 30 48 8 16 19 30 23 30 4 0 12 9 17 19 6 11 32
57 59 103 99 167 196 377 249 543 20 61 127 446 151 545 2 8 10 38 17 65 6 28
16 55 20 61 5 6 7 13 4 16 -3 3 1 24 9 46 9 23 13 42 11 42 -2 0 3 19 11 42 8
23 16 54 19 69 3 15 20 79 38 143 l34 116 -36 1 c-288 5 -3291 2 -3291 -4z"/>
</g>
</svg>
