<svg width="40" height="40" viewBox="0 0 40 40" fill="none" xmlns="http://www.w3.org/2000/svg">
<g clip-path="url(#clip0)">
<path d="M40 13.7501L20 0L4.54704e-06 13.7501C-2.16e-05 14.1668 7.35518e-05 13.7551 7.35518e-05 14.1668V38.3335V40.0001H1.66674H5.00007V20.0001V18.3334H6.66674H33.3334H35.0001V20.0001V40.0001H38.3334H40.0001V38.3335V14.1668L40 13.7501Z" fill="#B12E6A"/>
<path d="M19.1667 39.1668V30.8335H14.8334V35.0002H12.6667V30.8335H8.33337V39.1668H19.1667Z" fill="#B12E6A"/>
<path d="M31.6667 39.1668V30.8335H27.3334V35.0002H25.1667V30.8335H20.8334V39.1668H31.6667Z" fill="#B12E6A"/>
<path d="M25.8335 29.1668V20.8335H21.5001V25.0002H19.3335V20.8335H15.0001V29.1668H25.8335Z" fill="#B12E6A"/>
</g>
<defs>
<clipPath id="clip0">
<rect width="40" height="40" fill="white"/>
</clipPath>
</defs>
</svg>
