<svg xmlns="http://www.w3.org/2000/svg" style="display:none;">
  <symbol id="arrow-down" viewBox="0 0 16 10">
        <path d="M1 1L8 9L15 1" stroke="#BDBDBD" stroke-width="2" stroke-linecap="round" stroke-linejoin="round"/>
  </symbol>
  <symbol id="notification-icon" viewBox="0 0 20 24">
        <path d="M19.379 16.913C17.867 15.635 17 13.767 17 11.788V9C17 5.481 14.386 2.568 11 2.08V1C11 0.447 10.552 0 9.99997 0C9.44797 0 8.99997 0.447 8.99997 1V2.08C5.61297 2.568 2.99997 5.481 2.99997 9V11.788C2.99997 13.767 2.13297 15.635 0.61197 16.921C0.222969 17.254 -3.05176e-05 17.738 -3.05176e-05 18.25C-3.05176e-05 19.215 0.78497 20 1.74997 20H18.25C19.215 20 20 19.215 20 18.25C20 17.738 19.777 17.254 19.379 16.913Z"/>
        <path d="M9.99982 24C11.8108 24 13.3258 22.709 13.6738 21H6.32582C6.67382 22.709 8.18882 24 9.99982 24Z"/>
  </symbol>
  <symbol id="gumb-icon" viewBox="0 0 24 18">
        <rect width="24" height="3" fill="#BDBDBD"/>
        <rect y="7.5" width="24" height="3" fill="#BDBDBD"/>
        <rect y="15" width="24" height="3" fill="#BDBDBD"/>
  </symbol>
  <symbol id="sidebar-menu-object-icon" viewBox="0 0 24 24">
        <path d="M0 7.17492L0.712734 8.38753L1.40625 7.97358V19.7344H0V21.1406H5.67188V8.48438H18.3281V16.9219H22.5938V7.97358L23.2873 8.38753L24 7.17492L12 0L0 7.17492ZM15.5156 7.07812H8.48438V5.67188H15.5156V7.07812Z" />
        <path d="M7.07812 21.1406H12.7031V16.9219H16.9219V15.5156H7.07812V21.1406Z" />
        <path d="M7.07812 9.89062H16.9219V11.2969H7.07812V9.89062Z" />
        <path d="M7.07812 12.7031H16.9219V14.1094H7.07812V12.7031Z"/>
        <path d="M14.1094 18.3281H24V24H14.1094V18.3281Z" />
  </symbol>
  <symbol id="sidebar-menu-battery-icon" viewBox="0 0 24 24">
        <path d="M15.062 1.48975H8.93799V7.61376H15.062V1.48975Z"/>
        <path d="M15.062 16.3862H8.93799V22.5102H15.062V16.3862Z"/>
        <path d="M6.12401 16.3862H0V22.5102H6.12401V16.3862Z"/>
        <path d="M24 16.3862H17.876V22.5102H24V16.3862Z"/>
        <path d="M3.80114 12.7451H11.3793V15.5588H12.6207V12.7451H20.3848V15.6581H21.4912V11.5037H20.9383H12.6207V8.68994H11.3793V11.5037H3.06227V11.5203H2.69531V15.6581H3.80114V12.7451Z"/>
  </symbol>
  <symbol id="sidebar-menu-docs-icon" viewBox="0 0 24 24">
        <path d="M19.0589 0H2.82361V21.8824H4.23537V1.41176H19.0589V0Z"/>
        <path d="M5.64722 2.82373V24.0002H15.5296V18.3531H21.1766V2.82373H5.64722ZM13.4119 18.3531H8.47075V16.9414H13.4119V18.3531ZM18.3531 15.5296H8.47075V14.1178H18.3531V15.5296ZM18.3531 12.7061H8.47075V11.2943H18.3531V12.7061ZM18.3531 9.88255H8.47075V8.47079H18.3531V9.88255Z"/>
        <path d="M16.9412 23.5864L20.763 19.7646H16.9412V23.5864Z"/>
  </symbol>

  <symbol id="sidebar-menu-guide-icon" viewBox="0 0 24 24">
        <path fill-rule="evenodd" clip-rule="evenodd" d="M0 2.6969L0.00064048 22.0727H12.5V2.6969H0ZM2.93204 15.8911H11.8824V14.4251H2.93204V15.8911ZM2.93204 12.959H11.8824V11.493H2.93204V12.959ZM2.93204 10.027H11.8824V8.56098H2.93204V10.027Z"/>
        <path fill-rule="evenodd" clip-rule="evenodd" d="M9.18213 2.69653V22.0812C9.81511 22.0812 9.78205 22.0812 10.106 22.0812H24.0002V2.69676L9.18213 2.69653ZM18.2154 7.54623H16.3693V9.39087H18.2154V7.54623ZM14.5232 17.3908H20.0616V15.5462H18.2148V11.2385H14.5232V13.0832H16.3701V15.5462H14.5232V17.3908Z"/>
  </symbol>

    <symbol id="sidebar-menu-calendar-icon" viewBox="0 0 24 24">
        <path fill-rule="evenodd" clip-rule="evenodd" d="M22.7245 9.30054H1V23.2348H22.7245V9.30054ZM7.09721 11.7004H5.24451V13.5544H7.09721V11.7004ZM5.24451 15.3407H7.09721V17.1947H5.24451V15.3407ZM7.09721 18.981H5.24451V20.835H7.09721V18.981ZM10.9359 18.981H12.7886V20.835H10.9359V18.981ZM12.7886 15.3407H10.9359V17.1947H12.7886V15.3407ZM10.9359 11.7004H12.7886V13.5544H10.9359V11.7004ZM18.4903 11.7004H16.6376V13.5544H18.4903V11.7004ZM16.6376 15.3407H18.4903V17.1947H16.6376V15.3407ZM18.4903 18.981H16.6376V20.835H18.4903V18.981Z" fill="currentColor"/>
        <rect x="1" y="4.13867" width="21.7245" height="3.67159" fill="currentColor"/>
        <rect x="5.24463" y="1" width="1.8527" height="5.22928" fill="currentColor"/>
        <rect x="16.6372" y="1" width="1.8527" height="5.22928" fill="currentColor"/>
  </symbol>

  <symbol id="sidebar-menu-appeals-icon" viewBox="0 0 24 24">
        <path d="M4.21875 0V2.20312H19.6875V21.8906H21.8906C21.8906 21.745 21.8906 0.604781 21.8906 0C21.4156 0 4.69327 0 4.21875 0Z"/>
        <path d="M2.10938 24H18.2812V3.60938H2.10938V24ZM5.625 7.82812H14.7656V9.23438H5.625V7.82812ZM5.625 11.3438H14.7656V12.75H5.625V11.3438ZM5.625 14.8594H14.7656V16.2656H5.625V14.8594ZM5.625 18.375H14.7656V19.7812H5.625V18.375Z"/>
  </symbol>
  <symbol id="sidebar-menu-clients-icon" viewBox="0 0 24 24">
        <path fill-rule="evenodd" clip-rule="evenodd" d="M5.23481 16.1558C5.26225 13.414 7.49265 11.2058 10.2346 11.2058H13.8791C16.66 11.2058 18.9066 13.475 18.8788 16.2558L18.8305 21.0787H5.18555L5.23481 16.1558ZM12.997 14.3515L13.8157 21.0787H10.5409L11.3596 14.3515H12.997ZM12.1783 13.6332C13.0826 13.6332 13.8157 12.8802 13.8157 11.9514L10.5409 11.9514C10.5409 12.8802 11.274 13.6332 12.1783 13.6332Z"/>
        <circle cx="12.1722" cy="6.19733" r="4.19733"/>
        <path d="M18.9498 12.4954C21.7308 12.4954 23.9774 14.7645 23.9495 17.5454L23.9301 19.4887L19.4998 19.5C19.4998 15.1 19.9206 14.7867 18.1868 12.4954H18.9498Z"/>
        <circle cx="19.5" cy="9.5" r="2.5"/>
        <path d="M5.05014 12.9209C2.26916 12.9209 0.0225644 15.1901 0.0503913 17.9709L0.0698371 19.9142L4.50017 19.9255C4.50017 15.5255 4.50017 14.5236 5.75513 12.9209H5.05014Z"/>
        <circle r="2.5" transform="matrix(-1 0 0 1 4.5 9.5)"/>
  </symbol>
  <symbol id="back-arrow-icon" viewBox="0 0 23 16">
        <path d="M8.90909 1.5L2 8M2 8L8.90909 14.5M2 8H22" stroke-width="2" stroke-linecap="square"/>
  </symbol>
  <symbol id="submenu-home-icon" viewBox="0 0 24 24">
        <path d="M12 1.7998L0 12.5998H3.6V22.1998H9.60001V14.9998H14.4V22.1998H20.4V12.5998H24L12 1.7998Z"/>
  </symbol>
  <symbol id="submenu-support-icon" viewBox="0 0 24 24">
        <path d="M12 0C6.93445 0 2.81325 4.12083 2.81255 9.18628C2.81255 9.18628 2.8125 9.18708 2.8125 9.18745V18.3285C2.8125 18.7168 3.12731 19.0316 3.51562 19.0316H7.0313C7.41961 19.0316 7.73442 18.7168 7.73442 18.3285V9.18741C7.73442 8.79909 7.41961 8.48428 7.0313 8.48428H4.25091C4.60753 4.52198 7.94644 1.4062 12 1.4062C16.0536 1.4062 19.3925 4.52198 19.7491 8.48428H16.9687C16.5803 8.48428 16.2655 8.79909 16.2655 9.18741V18.3284C16.2655 18.7167 16.5803 19.0315 16.9687 19.0315H18.0233V21.1874H14.8125V20.4842C14.8125 20.0959 14.4976 19.7811 14.1093 19.7811H9.89067C9.50236 19.7811 9.18755 20.0959 9.18755 20.4842V23.2967C9.18755 23.685 9.50236 23.9999 9.89067 23.9999H14.1093C14.4976 23.9999 14.8125 23.685 14.8125 23.2967V22.5936H18.7265C19.1148 22.5936 19.4296 22.2788 19.4296 21.8905V19.0315H20.4843C20.8726 19.0315 21.1875 18.7167 21.1875 18.3284V9.18741C21.1875 4.12144 17.066 0 12 0Z"/>
        <path d="M1 10.5937V16.922C1 17.3103 1.31481 17.6251 1.70312 17.6251L2.99995 17.6253C2.99995 15.9249 2.99995 11.604 3 9.89087L1.70312 9.89062C1.31481 9.89062 1 10.2054 1 10.5937Z"/>
        <path d="M22.2969 9.89062H21V17.6251H22.2969C22.6852 17.6251 23 17.3103 23 16.922V10.5937C23 10.2054 22.6852 9.89062 22.2969 9.89062Z"/>
  </symbol>
  <symbol id="submenu-history-icon" viewBox="0 0 25 24">
        <path fill-rule="evenodd" clip-rule="evenodd" d="M2.375 4.39187L2.37564 23.25H17.2632V13.3555C16.6821 13.5169 16.0683 13.6033 15.4337 13.6033C15.0485 13.6033 14.6709 13.5715 14.3036 13.5103V14.3798H5.31844V12.953H12.5246C11.7781 12.5989 11.1103 12.1129 10.5537 11.5261H5.31844V10.0993H9.5285C9.29226 9.65152 9.10862 9.17335 8.98546 8.67243H5.31844V7.24558H8.80535C8.8051 7.22264 8.80498 7.19967 8.80498 7.17667C8.80498 6.17898 9.03947 5.23439 9.45793 4.39187H2.375ZM5.31844 17.2335H14.3036V15.8067H5.31844V17.2335Z"/>
        <path fill-rule="evenodd" clip-rule="evenodd" d="M17.2632 13.3555C16.6821 13.5169 16.0683 13.6033 15.4337 13.6033C15.0485 13.6033 14.6709 13.5715 14.3036 13.5103C13.676 13.4058 13.0786 13.2158 12.5246 12.953C11.7781 12.5989 11.1103 12.1129 10.5537 11.5261C10.1491 11.0997 9.80325 10.62 9.5285 10.0993C9.29226 9.65152 9.10862 9.17335 8.98546 8.67243C8.87272 8.21391 8.81067 7.73634 8.80535 7.24558C8.8051 7.22264 8.80498 7.19967 8.80498 7.17667C8.80498 6.17898 9.03947 5.23439 9.45793 4.39187H11.6603V4.8338L13.3476 7.24558H14.3036V8.61213L17.2632 12.8425V13.3555Z"/>
        <path fill-rule="evenodd" clip-rule="evenodd" d="M22.0625 7.17667C22.0625 3.62732 19.0947 0.75 15.4337 0.75C12.8018 0.75 10.5282 2.23709 9.45793 4.39187H11.6603V4.8338L13.3476 7.24558H14.3036V8.61213L17.2632 12.8425V13.3555C20.0344 12.5856 22.0625 10.1108 22.0625 7.17667ZM16.1439 3.21445H14.9512V7.97955L17.3001 10.6976L18.2102 9.95814L16.1439 7.51478V3.21445Z"/>
        <path fill-rule="evenodd" clip-rule="evenodd" d="M14.3036 12.953V13.5103C13.676 13.4058 13.0786 13.2158 12.5246 12.953H14.3036ZM9.5285 10.0993H14.3036V11.5261H10.5537C10.1491 11.0997 9.80325 10.62 9.5285 10.0993ZM14.3036 8.67243H8.98546C8.87272 8.21391 8.81067 7.73634 8.80535 7.24558H13.3476H14.3036V8.61213V8.67243Z"/>
  </symbol>
  <symbol id="submenu-report-icon" viewBox="0 0 25 24">
        <path fill-rule="evenodd" clip-rule="evenodd" d="M4.75 22.6765V1.5H20.2794V17.0294H14.6324V22.6765H4.75ZM8.04858 12.6765V11.0588H8.87795C9.42245 11.0588 9.84817 10.9295 10.1551 10.6709C10.4642 10.4102 10.6187 10.0549 10.6187 9.60502C10.6187 9.30859 10.5482 9.04475 10.4074 8.8135C10.2665 8.58014 10.0647 8.40039 9.80192 8.27425C9.54123 8.14811 9.2385 8.08504 8.89372 8.08504H7.10254V12.6765H8.04858ZM8.04858 10.2925H8.89372C9.14389 10.2925 9.33415 10.2336 9.4645 10.1159C9.59694 9.99816 9.66317 9.82997 9.66317 9.61133C9.66317 9.38638 9.59694 9.20453 9.4645 9.06578C9.33205 8.92702 9.14915 8.85554 8.91579 8.85134H8.04858V10.2925ZM11.2714 12.6765V8.08504H12.6842C13.0879 8.08504 13.4484 8.17649 13.7659 8.3594C14.0854 8.5402 14.3345 8.79878 14.5132 9.13515C14.6919 9.46942 14.7813 9.84994 14.7813 10.2767V10.488C14.7813 10.9148 14.693 11.2942 14.5164 11.6264C14.3419 11.9586 14.0949 12.2161 13.7753 12.399C13.4558 12.5819 13.0952 12.6744 12.6937 12.6765H11.2714ZM12.2175 11.9165V8.85134H12.6842C13.0563 8.85134 13.3391 8.97222 13.5325 9.21399C13.7259 9.45365 13.8226 9.80684 13.8226 10.2736V10.5164C13.8184 10.9663 13.7185 11.3121 13.523 11.5539C13.3275 11.7956 13.0448 11.9165 12.6747 11.9165H12.2175ZM16.4179 10.8002H18.2343V10.037H16.4179V8.85134H18.4614V8.08504H15.4719V12.6765H16.4179V10.8002Z"/>
        <path d="M16.0439 22.2632L19.8657 18.4414H16.0439V22.2632Z"/>
  </symbol>
  <symbol id="sort-arrow" viewBox="0 0 12 7">
        <path d="M1 6L6 1L11 6" stroke="#FD8204" stroke-width="1.5" stroke-linecap="round" stroke-linejoin="round"/>
  </symbol>
  <symbol id="object-icon-1" viewBox="0 0 40 40">
        <path d="M32.9685 16.4312H7.03198V18.8068H32.9685V16.4312Z"/>
        <path d="M32.9685 21.1509H7.03198V23.5265H32.9685V21.1509Z"/>
        <path d="M32.9685 25.8701H7.03198V28.2457H32.9685V25.8701Z"/>
        <path d="M32.9685 30.5894H7.03198V32.965H32.9685V30.5894Z"/>
        <path d="M32.9685 11.7119H7.03198V14.0875H32.9685V11.7119Z"/>
        <path d="M20.0011 0L0.00195312 5.81356V32.965H4.68927V9.36846H35.3131V32.965H40.0004V5.81356L20.0011 0Z"/>
        <path d="M39.9994 35.3086H0.000976562V39.9998H39.9994V35.3086Z"/>
  </symbol>
  <symbol id="object-icon-2" viewBox="0 0 40 40">
        <path d="M30 13.3335H10V16.6669H30V13.3335Z"/>
        <path d="M30 20H10V23.3334H30V20Z"/>
        <path d="M15 39.9999H10V26.6665H29.9999V39.9999H24.9999V31.6665L25 29.9998L23.3333 29.9999H16.6666H15V31.6665V39.9999Z"/>
        <path d="M1.66664 0H38.3334H39.9999V1.66664V38.3334V40H38.3333H33.3333V11.6666C33.3333 10.7466 32.5883 10 31.6666 10H8.33328C7.41166 10 6.66667 10.7466 6.66664 11.6666C6.66664 11.6666 6.66664 11.6666 6.66664 11.6666V40H1.66664H0V38.3333V1.66664V0H1.66664Z"/>
  </symbol>
  <symbol id="object-icon-3" viewBox="0 0 40 40">
        <path d="M40 13.7501L20 0L4.54704e-06 13.7501C-2.16e-05 14.1668 7.35518e-05 13.7551 7.35518e-05 14.1668V38.3335V40.0001H1.66674H5.00007V20.0001V18.3334H6.66674H33.3334H35.0001V20.0001V40.0001H38.3334H40.0001V38.3335V14.1668L40 13.7501Z"/>
        <path d="M19.1667 39.1668V30.8335H14.8334V35.0002H12.6667V30.8335H8.33337V39.1668H19.1667Z"/>
        <path d="M31.6667 39.1668V30.8335H27.3334V35.0002H25.1667V30.8335H20.8334V39.1668H31.6667Z"/>
        <path d="M25.8335 29.1668V20.8335H21.5001V25.0002H19.3335V20.8335H15.0001V29.1668H25.8335Z"/>
  </symbol>
  <symbol id="object-icon-4" viewBox="0 0 40 40">
        <path d="M0 1V6.27538H3.16498H10.285H13.45V1H0Z"/>
        <path fill-rule="evenodd" clip-rule="evenodd" d="M40 13.9883V8.68652L26.7249 13.9883V8.68652L13.4499 13.9883V9.43997H0V38.5847H40V13.9883ZM13.45 30.3624H20.7363V23.0762H13.45V30.3624ZM26.725 30.3624H34.0113V23.0762H26.725V30.3624Z"/>
  </symbol>
  <symbol id="object-icon-5" viewBox="0 0 40 40">
        <path d="M14.8483 14.4141H25.1513V22.9999H14.8483V14.4141Z"/>
        <path d="M13.1312 23H11.4141V10.9798L19.9999 6L28.5858 10.9798V23H26.8686V13.5556V12.697H26.01H13.9898H13.1312V13.5556V23Z"/>
        <path d="M37.8333 37.3333V29H33.5V33.1667H31.3333V29H27V37.3333H37.8333Z"/>
        <path d="M25.4167 37.3333V29H21.0834V33.1667H18.9167V29H14.5834V37.3333H25.4167Z"/>
        <path d="M12.8333 37.3333V29H8.5V33.1667H6.33333V29H2V37.3333H12.8333Z"/>
        <rect x="30" y="23" width="2" height="4" transform="rotate(-90 30 23)"/>
        <rect x="32" y="22" width="2" height="6"/>
        <rect x="19" y="24.3125" width="2" height="3.68767"/>
        <rect width="2" height="4" transform="matrix(4.37114e-08 -1 -1 -4.37114e-08 10 23)"/>
        <rect width="2" height="6" transform="matrix(-1 0 0 1 8 22)"/>
  </symbol>
  <symbol id="input-search-icon" viewBox="0 0 20 20" fill="none">
        <path d="M17.5003 17.4998L13.762 13.7548L17.5003 17.4998ZM15.8337 8.74984C15.8337 10.6285 15.0874 12.4301 13.759 13.7585C12.4306 15.0869 10.6289 15.8332 8.75033 15.8332C6.87171 15.8332 5.07004 15.0869 3.74165 13.7585C2.41327 12.4301 1.66699 10.6285 1.66699 8.74984C1.66699 6.87122 2.41327 5.06955 3.74165 3.74116C5.07004 2.41278 6.87171 1.6665 8.75033 1.6665C10.6289 1.6665 12.4306 2.41278 13.759 3.74116C15.0874 5.06955 15.8337 6.87122 15.8337 8.74984V8.74984Z" stroke="#BDBDBD" stroke-width="2" stroke-linecap="round"/>
  </symbol>
  <symbol id="filters-icon" viewBox="0 0 16 16">
        <path d="M15.3297 0H0.670522C0.450834 0 0.311033 0.23966 0.450834 0.439376L5.8232 7.96868C6.06286 8.28823 6.20266 8.70763 6.20266 9.12704V15.6977C6.22263 15.9174 6.40238 16.0572 6.58212 15.9773L9.63778 14.819C9.73764 14.799 9.79755 14.6792 9.79755 14.5793V9.12704C9.79755 8.70763 9.93735 8.3082 10.177 7.96868L15.5494 0.439376C15.6892 0.23966 15.5494 0 15.3297 0Z"/>
  </symbol>
  <symbol id="battery-icon-1" viewBox="0 0 24 24">
        <path d="M22.0925 16.8813L19.6548 15.4739L21.7673 14.2283C22.1569 13.9985 22.2865 13.4964 22.0568 13.1068C21.827 12.7173 21.325 12.5877 20.9353 12.8173L18.0254 14.5332L13.6378 11.9999L18.0246 9.46717L20.9354 11.1828C21.0659 11.2598 21.2092 11.2963 21.3505 11.2963C21.6309 11.2963 21.904 11.1521 22.0568 10.893C22.2864 10.5034 22.1567 10.0013 21.7671 9.77151L19.6543 8.52631L22.0925 7.11861C22.4842 6.89246 22.6184 6.39156 22.3923 5.99986C22.1661 5.60806 21.6652 5.47385 21.2735 5.70011L18.8358 7.10758L18.8137 4.65485C18.8096 4.20255 18.4386 3.83706 17.9874 3.84328C17.5351 3.84732 17.1716 4.21729 17.1758 4.66959L17.2063 8.04834L12.8189 10.5814V5.51567L15.7605 3.85322C16.1542 3.63067 16.293 3.13108 16.0705 2.7372C15.8479 2.34342 15.3482 2.20452 14.9544 2.42718L12.8189 3.63416V0.818997C12.8189 0.366692 12.4522 0 11.9999 0C11.5476 0 11.1809 0.366692 11.1809 0.818997V3.63416L9.04544 2.42729C8.65145 2.20463 8.15208 2.34342 7.92942 2.73731C7.70687 3.13108 7.84566 3.63078 8.23944 3.85333L11.1808 5.51578V10.5814L6.79353 8.04834L6.82399 4.66959C6.82814 4.21729 6.46473 3.84732 6.01242 3.84328C6.00991 3.84328 6.00751 3.84328 6.00489 3.84328C5.55608 3.84328 5.19015 4.20506 5.18611 4.65496L5.16394 7.10758L2.72628 5.70011C2.33458 5.47385 1.83368 5.60816 1.60753 5.99986C1.38137 6.39156 1.51558 6.89246 1.90728 7.11861L4.34538 8.52631L2.23226 9.77173C1.84263 10.0014 1.7129 10.5035 1.94255 10.8932C2.09532 11.1523 2.36843 11.2965 2.64896 11.2965C2.79027 11.2965 2.93343 11.2599 3.06403 11.183L5.97518 9.46739L10.3621 12.0002L5.97442 14.5334L3.06403 12.8172C2.67463 12.5875 2.17231 12.7171 1.94255 13.1067C1.7128 13.4963 1.84242 13.9984 2.23204 14.2281L4.34483 15.4738L1.90717 16.8812C1.51547 17.1073 1.38127 17.6082 1.60742 17.9999C1.7591 18.2627 2.03439 18.4095 2.31743 18.4095C2.45634 18.4095 2.5972 18.3741 2.72617 18.2997L5.16383 16.8922L5.186 19.345C5.19004 19.7948 5.55597 20.1567 6.00478 20.1567C6.00729 20.1567 6.0098 20.1567 6.01231 20.1566C6.46462 20.1526 6.82803 19.7826 6.82388 19.3303L6.79342 15.9514L11.1808 13.4183V18.4842L8.23944 20.1467C7.84566 20.3692 7.70687 20.8688 7.92942 21.2627C8.08001 21.5291 8.35748 21.6789 8.64315 21.6789C8.77965 21.6789 8.91811 21.6447 9.04544 21.5727L11.1809 20.3658V23.181C11.1809 23.6333 11.5476 24 11.9999 24C12.4522 24 12.8189 23.6333 12.8189 23.181V20.3658L14.9544 21.5727C15.0818 21.6447 15.2201 21.6789 15.3567 21.6789C15.6424 21.6789 15.9199 21.5291 16.0705 21.2627C16.293 20.8689 16.1542 20.3692 15.7605 20.1467L12.8189 18.4842V13.4184L17.2063 15.9514L17.175 19.3302C17.1708 19.7825 17.5341 20.1526 17.9864 20.1567C17.989 20.1568 17.9915 20.1568 17.9941 20.1568C18.4428 20.1568 18.8088 19.795 18.8129 19.3454L18.8356 16.8922L21.2736 18.2998C21.4026 18.3743 21.5434 18.4096 21.6823 18.4096C21.9654 18.4096 22.2407 18.2627 22.3924 18C22.6185 17.6083 22.4843 17.1074 22.0925 16.8813Z" fill="#CECECE"/>
  </symbol>
  <symbol id="battery-icon-2" viewBox="0 0 24 24">
        <path d="M17.1052 6.6926C15.4035 3.88381 13.5107 1.45285 12.5339 0.253745C12.4032 0.0931589 12.207 -6.25753e-05 12 3.15145e-08C11.7929 3.15145e-08 11.5968 0.0932215 11.466 0.253808C10.4892 1.45329 8.59646 3.88506 6.89474 6.69411C4.70174 10.3142 3.58978 13.3073 3.58978 15.5899C3.58978 20.2273 7.36254 24 11.9999 24C16.6373 24 20.41 20.2273 20.41 15.5899C20.4101 13.3058 19.2982 10.3123 17.1052 6.6926ZM13.154 20.9024C12.6629 21.028 12.1532 21.0916 11.6386 21.0916C8.4966 21.0916 5.94042 18.717 5.94042 15.7982C5.94042 15.0936 6.12637 14.2703 6.49293 13.3513C6.55485 13.1961 6.73127 13.1075 6.9052 13.145C7.07899 13.1825 7.19569 13.334 7.17779 13.4988C7.15638 13.6959 7.14548 13.8884 7.14548 14.0708C7.14548 17.2471 9.70492 19.907 13.099 20.2576C13.2679 20.2751 13.3997 20.4014 13.4131 20.5589C13.4266 20.7163 13.3178 20.8605 13.154 20.9024Z" fill="#CECECE"/>
  </symbol>
  <symbol id="download-icon" viewBox="0 0 24 24">
        <path d="M12.8826 2C12.8826 1.44772 12.4349 1 11.8826 1C11.3304 1 10.8826 1.44772 10.8826 2L12.8826 2ZM11.1755 17.06C11.5661 17.4506 12.1992 17.4506 12.5898 17.06L18.9537 10.6961C19.3442 10.3056 19.3442 9.6724 18.9537 9.28187C18.5632 8.89135 17.93 8.89135 17.5395 9.28187L11.8826 14.9387L6.22579 9.28187C5.83527 8.89135 5.2021 8.89135 4.81158 9.28187C4.42105 9.6724 4.42105 10.3056 4.81158 10.6961L11.1755 17.06ZM10.8826 2L10.8826 16.3529L12.8826 16.3529L12.8826 2L10.8826 2Z" fill="#43B02A"/>
        <path d="M2.00029 22C3.37523 22 15.7497 22 21.765 22" stroke="#43B02A" stroke-width="2" stroke-linecap="round" stroke-linejoin="round"/>
  </symbol>
  <symbol id="settings-icon" viewBox="0 0 24 24">
        <path d="M24 13.983V10.017L20.7465 9.37636C20.5687 8.78517 20.3325 8.21522 20.0385 7.67278L21.854 4.94953L19.0504 2.14594L16.3272 3.96141C15.7847 3.6675 15.2148 3.4313 14.6236 3.25345L13.983 0H10.017L9.37636 3.2535C8.78517 3.43134 8.21522 3.66755 7.67278 3.96145L4.94953 2.14594L2.14594 4.94953L3.96141 7.67278C3.6675 8.21522 3.4313 8.78513 3.25345 9.37636L0 10.017V13.983L3.2535 14.6236C3.43134 15.2148 3.66755 15.7848 3.96145 16.3272L2.14594 19.0505L4.94953 21.8541L7.67278 20.0386C8.21522 20.3325 8.78513 20.5687 9.37636 20.7465L10.017 24H13.983L14.6236 20.7465C15.2148 20.5687 15.7848 20.3325 16.3272 20.0385L19.0505 21.854L21.8541 19.0504L20.0386 16.3272C20.3325 15.7847 20.5687 15.2148 20.7465 14.6236L24 13.983ZM12 16.9219C9.28636 16.9219 7.07812 14.7136 7.07812 12C7.07812 9.28636 9.28636 7.07812 12 7.07812C14.7136 7.07812 16.9219 9.28636 16.9219 12C16.9219 14.7136 14.7136 16.9219 12 16.9219Z"/>
  </symbol>
  <symbol id="password-visible" viewBox="0 0 24 24">
        <path d="M0.267713 12.7337C1.83433 14.6969 6.49453 19.9322 12.0074 19.9322C17.5203 19.9322 22.1805 14.6971 23.7472 12.7337C24.0841 12.2974 24.0841 11.6827 23.7472 11.2664C22.1805 9.30321 17.5203 4.06793 12.0074 4.06793C6.49453 4.0481 1.83433 9.28338 0.267713 11.2466C-0.0892378 11.6829 -0.0892378 12.2974 0.267713 12.7337ZM12.0074 7.22099C14.6449 7.22099 16.7668 9.34287 16.7668 11.9803C16.7668 14.6178 14.6449 16.7397 12.0074 16.7397C9.36996 16.7397 7.24809 14.6178 7.24809 11.9803C7.24809 9.34287 9.36996 7.22099 12.0074 7.22099Z" fill="#BDBDBD"/>
        <path d="M12.0076 14.3599C13.3219 14.3599 14.3873 13.2945 14.3873 11.9803C14.3873 10.666 13.3219 9.60059 12.0076 9.60059C10.6933 9.60059 9.62793 10.666 9.62793 11.9803C9.62793 13.2945 10.6933 14.3599 12.0076 14.3599Z" fill="#BDBDBD"/>
  </symbol>
   <symbol id="password-hidden" viewBox="0 0 24 24">
        <path d="M0.267713 12.7337C1.83433 14.6969 6.49453 19.9322 12.0074 19.9322C17.5203 19.9322 22.1805 14.6971 23.7472 12.7337C24.0841 12.2974 24.0841 11.6827 23.7472 11.2664C22.1805 9.30321 17.5203 4.06793 12.0074 4.06793C6.49453 4.0481 1.83433 9.28338 0.267713 11.2466C-0.0892378 11.6829 -0.0892378 12.2974 0.267713 12.7337ZM12.0074 7.22099C14.6449 7.22099 16.7668 9.34287 16.7668 11.9803C16.7668 14.6178 14.6449 16.7397 12.0074 16.7397C9.36996 16.7397 7.24809 14.6178 7.24809 11.9803C7.24809 9.34287 9.36996 7.22099 12.0074 7.22099Z" fill="#BBBABA"/>
        <path d="M12.0076 14.3599C13.3219 14.3599 14.3873 13.2945 14.3873 11.9803C14.3873 10.666 13.3219 9.60059 12.0076 9.60059C10.6933 9.60059 9.62793 10.666 9.62793 11.9803C9.62793 13.2945 10.6933 14.3599 12.0076 14.3599Z" fill="#BBBABA"/>
        <rect x="3" y="19.9707" width="24" height="1" transform="rotate(-45 3 19.9707)" fill="#BDBDBD"/>
        <rect x="3.70703" y="20.6777" width="24" height="1.5" transform="rotate(-45 3.70703 20.6777)" fill="#F2F2F2"/>
  </symbol>
  <symbol id="closing-cross-icon" viewBox="0 0 17 17">
        <rect width="2.00346" height="22.0381" transform="matrix(0.707109 0.707104 -0.707109 0.707104 15.5835 0)"/>
        <rect width="2.00346" height="22.038" transform="matrix(0.707106 -0.707108 0.707106 0.707108 0 1.4165)"/>
  </symbol>
  <symbol id="calendar-arrow-prev" viewBox="0 0 11 17">
        <path d="M10 1L2 8.22926L10 15.4585" stroke="#BDBDBD" stroke-width="2"/>
  </symbol>
  <symbol id="calendar-arrow-next" viewBox="0 0 11 17">
        <path d="M1 15.459L9 8.22973L0.999999 1.00047" stroke="#BDBDBD" stroke-width="2"/>
  </symbol>
  <symbol id="battery-version-icon" viewBox="0 0 16 16" fill="none">
        <circle cx="8" cy="8" r="7.5" stroke="#FD8204"/>
        <path d="M8.56196 10.2639H7.34845L7.25399 2.67041H8.66369L8.56196 10.2639ZM7.20312 12.5746C7.20312 12.3566 7.26852 12.175 7.39932 12.0296C7.53496 11.8795 7.73358 11.8044 7.99517 11.8044C8.25676 11.8044 8.45538 11.8795 8.59102 12.0296C8.72666 12.175 8.79448 12.3566 8.79448 12.5746C8.79448 12.7926 8.72666 12.9743 8.59102 13.1196C8.45538 13.2601 8.25676 13.3303 7.99517 13.3303C7.73358 13.3303 7.53496 13.2601 7.39932 13.1196C7.26852 12.9743 7.20312 12.7926 7.20312 12.5746Z" fill="#FD8204"/>
  </symbol>
</svg>